<?xml version="1.0" encoding="UTF-8" standalone="no"?>
<svg
   xmlns:dc="http://purl.org/dc/elements/1.1/"
   xmlns:cc="http://creativecommons.org/ns#"
   xmlns:rdf="http://www.w3.org/1999/02/22-rdf-syntax-ns#"
   xmlns:svg="http://www.w3.org/2000/svg"
   xmlns="http://www.w3.org/2000/svg"
   viewBox="0 0 6423.8125 1242.6875"
   height="1242.6875"
   width="6423.8125"
   xml:space="preserve"
   version="1.1"
   id="svg2"><metadata
     id="metadata8"><rdf:RDF><cc:Work
         rdf:about=""><dc:format>image/svg+xml</dc:format><dc:type
           rdf:resource="http://purl.org/dc/dcmitype/StillImage" /><dc:title></dc:title></cc:Work></rdf:RDF></metadata><defs
     id="defs6" /><g
     transform="matrix(1.25,0,0,-1.25,0,1242.6875)"
     id="g10"><g
       transform="scale(0.350375,0.350375)"
       id="g12"><path
         id="path14"
         style="fill:#41bea0;fill-opacity:1;fill-rule:nonzero;stroke:none"
         d="m 1857.49,1502.56 0,15.88 c 407.36,108.34 599.34,355.06 599.34,626.85 0,283 -197.39,473.28 -525.6,570.8 -192.65,57.07 -485.19,99.88 -882.37,99.88 -321.087,0 -596.981,-21.41 -784.852,-59.45 C 59.4492,2716.09 0,2628.07 0,2437.81 L 0,392.438 C 0,214.055 59.4492,111.793 264.008,73.7227 435.246,42.8125 730.156,21.4102 1048.86,21.4102 c 366.25,0 670.68,35.6757 906.14,104.6558 361.52,109.403 599.35,354.356 599.35,665.93 0,306.144 -206.86,586.634 -696.86,710.564" /><path
         id="path16"
         style="fill:#41bea0;fill-opacity:1;fill-rule:nonzero;stroke:none"
         d="m 12826.5,2815.97 c -218.9,0 -368.7,-7.13 -539.9,-33.29 -199.8,-30.91 -271.2,-133.2 -271.2,-323.46 l 0,-2081.06 c 0,-190.262 71.4,-292.5233 271.2,-323.4569 171.2,-26.1562 321,-33.2929 539.9,-33.2929 970.3,0 1840.8,428.1128 1840.8,1398.4798 0,970.36 -870.5,1396.08 -1840.8,1396.08" /><path
         id="path18"
         style="fill:#41bea0;fill-opacity:1;fill-rule:nonzero;stroke:none"
         d="m 4330.99,2837.38 c -851.46,0 -1476.97,-575.56 -1476.97,-1427.01 C 2854.02,563.668 3481.9,0 4328.59,0 c 851.46,0 1476.96,575.582 1476.96,1427.02 0,846.7 -627.87,1410.36 -1474.56,1410.36" /><path
         id="path20"
         style="fill:#41bea0;fill-opacity:1;fill-rule:nonzero;stroke:none"
         d="m 11653.9,2571.01 c 0,99.88 -35.6,147.44 -142.7,173.61 -180.7,45.2 -558.9,73.73 -1084.5,73.73 -299.7,0 -689.73,-23.79 -906.16,-57.08 -199.78,-30.93 -268.76,-133.2 -268.76,-316.32 l 0,-2050.134 c 0,-183.144 68.98,-285.406 268.76,-316.316 216.43,-33.293 606.46,-57.0898 906.16,-57.0898 525.6,0 903.8,28.5429 1084.5,73.7265 107.1,26.1723 142.7,73.7423 142.7,173.6253 0,259.172 -205.8,595.679 -772.9,728.14 l 0,17.788 c 402.3,45.11 558.9,213.31 558.9,405.2 0,191.88 -156.6,360.08 -558.9,405.19 l 0,17.79 c 567.1,132.45 772.9,468.96 772.9,728.14" /><path
         id="path22"
         style="fill:#41bea0;fill-opacity:1;fill-rule:nonzero;stroke:none"
         d="m 8302.82,1465.06 537.51,868.11 c 57.08,92.76 49.95,166.48 -19.01,240.21 -135.57,142.71 -392.43,242.59 -642.17,242.59 -297.54,0 -541.73,-108.17 -718.34,-306.79 l -9.74,0 c -177.78,198.62 -425.19,306.79 -722.71,306.79 -249.73,0 -506.6,-99.88 -642.16,-242.59 -68.96,-73.73 -76.09,-147.45 -19.01,-240.21 L 6604.7,1465.06 6017.24,492.336 c -47.58,-80.883 -47.58,-159.359 9.51,-223.574 133.16,-149.832 368.63,-247.3518 651.67,-247.3518 321,0 584.69,129.1208 767.21,354.3668 l 9.67,0 c 184.23,-225.246 452.8,-354.3668 773.8,-354.3668 283.04,0 518.5,97.5198 651.67,247.3518 57.09,64.215 57.09,142.691 9.51,223.574 l -587.46,972.724" /></g></g></svg>