<svg id="6b29f8f1-d1f4-451c-8d92-1c1f8f7241e8" data-name="design" xmlns="http://www.w3.org/2000/svg" width="236.2" height="153.02" viewBox="0 0 236.2 153.02">
  <title>logo</title>
  <rect width="236.2" height="153.02" style="fill: #fff"/>
  <path d="M37,52.38c-1.65-1.59-3-2.5-5.39-2.5-6,0-7.49,6.64-7.49,11.35,0,5,1.47,11.35,7.26,11.35,2.61,0,4.26-1,6.13-2.72l-0.68,12a16.46,16.46,0,0,1-7,1.53c-9.48,0-17.53-7.21-17.53-21.85,0-19.18,13.16-22.41,18.78-22.41a16,16,0,0,1,5.9,1V52.38Z" style="fill: #6cad3f"/>
  <rect x="43" y="39.84" width="11.58" height="42.78" style="fill: #6cad3f"/>
  <polygon points="64.79 82.62 64.79 50.28 58.43 50.28 58.43 39.84 83 39.84 83 50.28 76.36 50.28 76.36 82.62 64.79 82.62" style="fill: #6cad3f"/>
  <polygon points="94.35 82.62 94.35 64.47 83.8 39.84 95.83 39.84 99.8 53.06 99.91 53.06 103.94 39.84 115.91 39.84 105.93 64.47 105.93 82.62 94.35 82.62" style="fill: #6cad3f"/>
  <polygon points="31.41 129.28 31.41 111.92 25.9 111.92 25.9 129.28 14.33 129.28 14.33 86.5 25.9 86.5 25.9 101.82 31.41 101.82 31.41 86.5 42.98 86.5 42.98 129.28 31.41 129.28" style="fill: #6cad3f"/>
  <path d="M67.32,129.28l-0.85-5.5H58.7l-1,5.5H45.82L56.09,86.5H70.22l9.08,42.78h-12ZM65.11,114.7l-1.25-9.93c-0.34-2.67-.57-5.39-0.85-8.06H62.9c-0.34,2.67-.62,5.39-1.08,8.06l-1.59,9.93h4.88Z" style="fill: #6cad3f"/>
  <path d="M100,129.28l-6.41-17.82-0.11.11c0.06,2.1.17,4.2,0.17,6.3v11.4H82V86.5H93.2c10,0,17.31,3,17.31,14.24,0,4.71-2,8.91-6.64,10.72l8.62,17.82H100Zm-5.62-23c3.06,0,4.71-2.67,4.71-5.45,0-3.75-2.27-5.33-5.45-5.16v10.55Z" style="fill: #6cad3f"/>
  <path d="M120.6,129.28L110.79,86.5h12.14l2.72,17.59c0.51,3.46.79,6.87,1.25,10.33H127c0.51-3.46.68-6.87,1.3-10.33L131.5,86.5H144l-11.63,42.78H120.6Z" style="fill: #6cad3f"/>
  <polygon points="146.37 86.5 167.87 86.5 167.87 96.6 157.94 96.6 157.94 102.56 166.85 102.56 166.85 112.66 157.94 112.66 157.94 119.18 167.87 119.18 167.87 129.28 146.37 129.28 146.37 86.5" style="fill: #6cad3f"/>
  <path d="M172.47,114.87c1.59,2.38,4.37,4.77,7.32,4.77,1.59,0,3.4-1,3.4-2.84a3.35,3.35,0,0,0-.91-2.38,9.19,9.19,0,0,0-1.93-1.65,27.84,27.84,0,0,1-5.73-5.45,12.4,12.4,0,0,1-2.33-7.49c0-5,3.18-14.07,13.05-14.07a18.13,18.13,0,0,1,8.23,2.16v13c-1.36-2.16-4.14-4.6-6.81-4.6a2.88,2.88,0,0,0-3,2.61,3.63,3.63,0,0,0,1.14,2.38,18.91,18.91,0,0,0,2.1,1.76,21.26,21.26,0,0,1,5.67,5.22,12.17,12.17,0,0,1,2.1,7.43c0,7.94-5.56,14.3-13.62,14.3a22.81,22.81,0,0,1-8.68-1.76V114.87Z" style="fill: #6cad3f"/>
  <polygon points="203.5 129.28 203.5 96.94 197.15 96.94 197.15 86.5 221.72 86.5 221.72 96.94 215.08 96.94 215.08 129.28 203.5 129.28" style="fill: #6cad3f"/>
  <path d="M198,61.94h1.2V53.67H198a14.47,14.47,0,0,0,0,28.95h14.68V74.34H198a6.2,6.2,0,0,1,0-12.4" style="fill: #6cad3f;fill-rule: evenodd"/>
  <path d="M221.55,82.62V53.23a8.34,8.34,0,0,0-12.72-7.09V40h-9V61.91h1V59.62h0a6.2,6.2,0,1,1,12.39,0h0v23h8.27" style="fill: #6cad3f"/>
  <path d="M123.52,35V21.71h1.32c1.85,0,3.64.14,3.64,3.39,0,1.69-.37,3.35-2.51,3.42l2.95,6.5h-1.31l-2.82-6.51h0V35h-1.24Zm1.24-7.52h0.44c1.73,0,2-.6,2-2.35,0-2.1-.63-2.31-2.21-2.31h-0.25V27.5Z" style="fill: #80725f"/>
  <polygon points="134.43 22.84 131.48 22.84 131.48 27.54 134.34 27.54 134.34 28.66 131.48 28.66 131.48 33.89 134.43 33.89 134.43 35.02 130.24 35.02 130.24 21.71 134.43 21.71 134.43 22.84" style="fill: #80725f"/>
  <path d="M140.83,23.81a2.58,2.58,0,0,0-2-1.08,2,2,0,0,0-1.92,2.15c0,1.55,1.13,2.28,2.28,3.05s2.26,1.64,2.26,3.48a3.51,3.51,0,0,1-3.34,3.78,3.47,3.47,0,0,1-2.1-.67V32.92A3,3,0,0,0,138.2,34a2.12,2.12,0,0,0,2-2.35c0-1.55-1.13-2.24-2.26-3s-2.28-1.64-2.28-3.55,1.09-3.53,3.05-3.53a3.58,3.58,0,0,1,2.1.71v1.57Z" style="fill: #80725f"/>
  <path d="M148,34.65a3.17,3.17,0,0,1-1.69.55c-3.12,0-3.58-4.08-3.58-6.36s0.07-7.31,3.71-7.31A2.88,2.88,0,0,1,148,22v1.36a2.64,2.64,0,0,0-1.55-.58c-2.15,0-2.45,3.12-2.45,5.6,0,1.55,0,5.67,2.37,5.67a2.91,2.91,0,0,0,1.64-.6v1.25Z" style="fill: #80725f"/>
  <path d="M155.08,30.8c0,2.45-.19,4.4-2.79,4.4s-2.79-2-2.79-4.4V21.71h1.24v9c0,2.21.12,3.27,1.55,3.27s1.55-1.06,1.55-3.27v-9h1.24V30.8Z" style="fill: #80725f"/>
  <rect x="157.14" y="21.71" width="1.24" height="13.31" style="fill: #80725f"/>
  <path d="M166,35H165l-3-8.95c-0.19-.55-0.3-1.15-0.46-1.71h-0.07c0.05,0.86.14,1.71,0.14,2.58V35H160.5V21.71h1.08L164.63,31c0.16,0.46.28,0.92,0.41,1.38h0.05c0-.58-0.12-1.18-0.12-1.77V21.71H166V35Z" style="fill: #80725f"/>
  <path d="M170.68,28h3v2.45c0,2.1-.11,4.75-2.86,4.75s-3.07-2.95-3.07-7.15c0-3.14.37-6.51,3.19-6.51,1.59,0,2.38,1.06,2.72,2.51l-1.22.48c-0.14-.79-0.48-1.78-1.45-1.78-1.84,0-2,2.86-2,5.21,0,4.93.62,6.06,1.91,6.06s1.52-1,1.52-3.87v-1h-1.8V28Z" style="fill: #80725f"/>
  <polygon points="137.57 38.56 134.55 38.56 134.55 43.26 137.41 43.26 137.41 44.39 134.55 44.39 134.55 50.75 133.32 50.75 133.32 37.44 137.57 37.44 137.57 38.56" style="fill: #80725f"/>
  <path d="M145.52,44.09c0,2.49-.18,6.83-3.27,6.83-2.91,0-3.27-3.72-3.27-6.83,0-3.37.44-6.83,3.27-6.83,3,0,3.27,3.9,3.27,6.83m-5.26,0c0,2.35.09,5.63,2,5.63s2-3.28,2-5.63-0.09-5.63-2-5.63-2,3.28-2,5.63" style="fill: #80725f"/>
  <path d="M153.39,44.09c0,2.49-.18,6.83-3.27,6.83-2.91,0-3.27-3.72-3.27-6.83,0-3.37.44-6.83,3.27-6.83,3,0,3.27,3.9,3.27,6.83m-5.26,0c0,2.35.09,5.63,2,5.63s2-3.28,2-5.63-0.09-5.63-2-5.63-2,3.28-2,5.63" style="fill: #80725f"/>
  <path d="M155.12,37.44h1.34c2.54,0,4.2.32,4.2,6.66,0,5.21-.85,6.66-4.11,6.66h-1.43V37.44Zm1.24,12.18h0.35c2.38,0,2.68-1.68,2.68-5.53,0-4.57-.48-5.53-2.82-5.53h-0.21V49.62Z" style="fill: #80725f"/>
  <polygon points="170.32 38.56 167.3 38.56 167.3 43.26 170.16 43.26 170.16 44.39 167.3 44.39 167.3 50.75 166.06 50.75 166.06 37.44 170.32 37.44 170.32 38.56" style="fill: #80725f"/>
  <path d="M178.26,44.09c0,2.49-.18,6.83-3.27,6.83-2.91,0-3.27-3.72-3.27-6.83,0-3.37.44-6.83,3.27-6.83,3,0,3.27,3.9,3.27,6.83m-5.26,0c0,2.35.09,5.63,2,5.63s2-3.28,2-5.63-0.09-5.63-2-5.63-2,3.28-2,5.63" style="fill: #80725f"/>
  <path d="M180,50.75V37.44h1.32c1.85,0,3.64.14,3.64,3.39,0,1.69-.37,3.35-2.51,3.42l2.95,6.5h-1.31l-2.82-6.51h0v6.51H180Zm1.24-7.52h0.44c1.73,0,2-.6,2-2.35,0-2.1-.63-2.31-2.21-2.31h-0.25v4.66Z" style="fill: #80725f"/>
  <path d="M121.5,66.55h-1.08l-3-8.95c-0.19-.55-0.3-1.15-0.46-1.71h-0.07c0.05,0.86.14,1.71,0.14,2.58v8.08H116V53.24H117l3.05,9.25c0.16,0.46.28,0.92,0.41,1.38h0.05c0-.58-0.12-1.18-0.12-1.77V53.24h1.08V66.55Z" style="fill: #80725f"/>
  <polygon points="127.82 54.37 124.87 54.37 124.87 59.06 127.73 59.06 127.73 60.19 124.87 60.19 124.87 65.42 127.82 65.42 127.82 66.55 123.63 66.55 123.63 53.23 127.82 53.23 127.82 54.37" style="fill: #80725f"/>
  <path d="M136.55,66.55h-1.13l-1.34-9c-0.07-.46-0.11-1.45-0.16-2.17h-0.07c-0.07.72-.12,1.73-0.19,2.17l-1.55,9H131l-2.12-13.31h1.27l1.18,8.9c0.09,0.65.14,1.32,0.21,2h0.07c0.09-.65.14-1.32,0.25-2l1.54-8.9h1.06l1.27,8.9,0.26,2H136c0.07-.65.12-1.32,0.23-2l1.38-8.9h1.25Z" style="fill: #80725f"/>
  <path d="M147,60.72v5.83H145.8V60.72l-2.58-7.48h1.32l1.32,4.48c0.18,0.58.32,1.18,0.51,1.78h0.07c0.12-.62.21-1.25,0.39-1.85l1.31-4.41h1.32Z" style="fill: #80725f"/>
  <path d="M157,59.89c0,2.49-.18,6.83-3.27,6.83-2.91,0-3.27-3.72-3.27-6.83,0-3.37.44-6.83,3.27-6.83,3,0,3.27,3.9,3.27,6.83m-5.26,0c0,2.35.09,5.63,2,5.63s2-3.28,2-5.63-0.09-5.63-2-5.63-2,3.28-2,5.63" style="fill: #80725f"/>
  <path d="M158.74,66.55V53.24h1.32c1.85,0,3.64.14,3.64,3.39,0,1.69-.37,3.35-2.51,3.42l2.95,6.5h-1.31L160,60h0v6.51h-1.24ZM160,59h0.44c1.73,0,2-.6,2-2.35,0-2.1-.63-2.31-2.21-2.31H160V59Z" style="fill: #80725f"/>
  <polygon points="167.78 59.57 170.78 66.55 169.39 66.55 166.74 59.84 166.71 59.84 166.71 66.55 165.47 66.55 165.47 53.23 166.71 53.23 166.71 59.27 166.74 59.27 169.39 53.23 170.77 53.23 167.78 59.57" style="fill: #80725f"/>
  <polygon points="172.23 53.23 173.56 53.23 173.41 57.22 172.37 57.22 172.23 53.23" style="fill: #80725f"/>
  <path d="M180.56,55.34a2.58,2.58,0,0,0-2-1.08,2,2,0,0,0-1.92,2.15c0,1.55,1.13,2.28,2.28,3.05s2.26,1.64,2.26,3.48a3.51,3.51,0,0,1-3.34,3.78,3.47,3.47,0,0,1-2.1-.67V64.44a3,3,0,0,0,2.15,1.08,2.12,2.12,0,0,0,2-2.35c0-1.55-1.13-2.24-2.26-3s-2.28-1.64-2.28-3.55,1.09-3.53,3.05-3.53a3.58,3.58,0,0,1,2.1.71v1.57Z" style="fill: #80725f"/>
  <polygon points="129.67 82.52 128.44 82.52 128.44 75.65 125.38 75.65 125.38 82.52 124.15 82.52 124.15 69.21 125.38 69.21 125.38 74.52 128.44 74.52 128.44 69.21 129.67 69.21 129.67 82.52" style="fill: #80725f"/>
  <path d="M137.32,78.3c0,2.45-.19,4.4-2.79,4.4s-2.79-2-2.79-4.4V69.21H133v9c0,2.21.12,3.27,1.55,3.27s1.55-1.06,1.55-3.27v-9h1.24V78.3Z" style="fill: #80725f"/>
  <path d="M144.92,82.52h-1.08l-3-8.95c-0.2-.55-0.3-1.15-0.46-1.71h-0.07c0.05,0.86.14,1.71,0.14,2.58v8.08h-1.08V69.21h1.08l3.05,9.25c0.16,0.46.28,0.92,0.41,1.38H144c0-.58-0.12-1.18-0.12-1.76V69.21h1.08V82.52Z" style="fill: #80725f"/>
  <path d="M149.57,75.49h3v2.45c0,2.1-.1,4.75-2.86,4.75s-3.07-2.95-3.07-7.15c0-3.14.37-6.51,3.2-6.51,1.59,0,2.38,1.06,2.72,2.51l-1.22.48c-0.14-.79-0.48-1.78-1.45-1.78-1.84,0-2,2.86-2,5.21,0,4.93.62,6.06,1.91,6.06s1.52-1,1.52-3.87v-1h-1.8V75.49Z" style="fill: #80725f"/>
  <path d="M154.33,82.52V69.21h1.32c1.85,0,3.64.14,3.64,3.39,0,1.69-.37,3.35-2.51,3.42l2.95,6.5h-1.31L155.6,76h0v6.51h-1.24ZM155.57,75H156c1.73,0,2-.6,2-2.35,0-2.1-.63-2.31-2.21-2.31h-0.25V75Z" style="fill: #80725f"/>
  <path d="M163.85,76.69v5.83h-1.24V76.69L160,69.21h1.32l1.32,4.48c0.18,0.58.32,1.18,0.51,1.78h0.07c0.12-.62.21-1.25,0.39-1.85L165,69.21h1.32Z" style="fill: #80725f"/>
</svg>
