<!-- Generated by IcoMoon.io -->
<svg version="1.1" xmlns="http://www.w3.org/2000/svg" width="512" height="512" viewBox="0 0 512 512">
<title></title>
<g id="icomoon-ignore">
</g>
<path d="M317.915 302.333l-31.27-26.595c-3.232-2.909-6.69-4.245-9.482-4.116 7.382-8.646 11.841-19.864 11.841-32.123 0-27.341-22.163-49.506-49.506-49.506-27.341 0-49.506 22.163-49.506 49.506s22.163 49.506 49.506 49.506c12.26 0 23.477-4.459 32.123-11.841-0.128 2.792 1.206 6.25 4.116 9.482l26.595 31.27c4.553 5.060 11.993 5.486 16.53 0.948s4.111-11.976-0.947-16.53zM239.498 272.502c-18.228 0-33.003-14.776-33.003-33.003s14.776-33.003 33.003-33.003 33.003 14.776 33.003 33.003-14.776 33.003-33.003 33.003z"></path>
</svg>
